<svg xmlns="http://www.w3.org/2000/svg" viewBox="0 12.739999771118164 338.9599914550781 58.650001525878906" data-asc="1.0283203125" width="338.9599914550781" height="58.650001525878906"><defs/><g fill="#000000"><g transform="translate(0, 0)"><path d="M31.40 14.21Q32.13 14.60 32.13 15.43Q32.13 15.72 31.93 16.06Q31.30 17.29 30.37 19.43Q29.44 21.58 28.49 23.97Q27.54 26.37 26.68 28.66Q25.83 30.96 25.34 32.47Q25 33.45 24.34 35.16Q23.68 36.87 22.85 38.89Q22.02 40.92 21.17 42.99Q20.31 45.07 19.56 46.80Q18.80 48.54 18.29 49.71Q17.77 50.88 17.72 51.03Q17.43 51.76 16.65 51.86Q16.36 52.15 16.16 52.25Q15.77 52.34 15.63 52.34Q15.23 52.34 14.87 52.12Q14.50 51.90 14.36 51.51Q14.31 51.37 13.79 50.20Q13.28 49.02 12.55 47.29Q11.82 45.56 10.94 43.46Q10.06 41.36 9.23 39.36Q8.40 37.35 7.74 35.64Q7.08 33.94 6.79 32.96Q6.30 31.45 5.42 29.15Q4.54 26.86 3.59 24.46Q2.64 22.07 1.71 19.90Q0.78 17.72 0.15 16.50Q0 16.21 0 15.87Q0 15.09 0.73 14.70Q0.98 14.50 1.37 14.50Q2.15 14.50 2.54 15.23Q3.27 16.60 4.25 18.87Q5.22 21.14 6.20 23.61Q7.18 26.07 8.06 28.39Q8.94 30.71 9.38 32.08Q9.72 33.20 10.55 35.28Q11.38 37.35 12.35 39.72Q13.33 42.09 14.28 44.41Q15.23 46.73 15.92 48.29Q16.36 47.31 16.97 45.90Q17.58 44.48 18.24 42.90Q18.90 41.31 19.60 39.62Q20.31 37.94 20.92 36.43Q21.53 34.91 22.00 33.64Q22.46 32.37 22.71 31.64Q23.14 30.22 24.02 27.93Q24.90 25.63 25.88 23.14Q26.86 20.65 27.86 18.38Q28.86 16.11 29.54 14.79Q29.74 14.40 30.05 14.23Q30.37 14.06 30.76 14.06Q31.01 14.06 31.40 14.21ZM36.33 22.22Q35.50 22.22 34.94 21.66Q34.38 21.09 34.38 20.26Q34.38 19.43 34.94 18.90Q35.50 18.36 36.33 18.36Q37.11 18.36 37.67 18.90Q38.23 19.43 38.23 20.26Q38.23 21.09 37.67 21.66Q37.11 22.22 36.33 22.22M36.96 24.27Q37.50 24.27 37.87 24.58Q38.23 24.90 38.33 25.39Q38.33 25.54 38.55 26.90Q38.77 28.27 39.06 30.22Q39.36 32.18 39.62 34.40Q39.89 36.62 39.99 38.38Q40.09 40.09 40.33 42.38Q40.58 44.68 40.87 46.75Q41.16 48.83 41.38 50.32Q41.60 51.81 41.60 51.90Q41.60 52.44 41.26 52.81Q40.92 53.17 40.23 53.27Q39.70 53.27 39.33 52.95Q38.96 52.64 38.87 52.10Q38.87 51.95 38.65 50.49Q38.43 49.02 38.13 46.95Q37.84 44.87 37.60 42.58Q37.35 40.28 37.26 38.53Q37.16 36.82 36.89 34.62Q36.62 32.42 36.35 30.47Q36.08 28.52 35.86 27.12Q35.64 25.73 35.64 25.63Q35.64 25.15 35.94 24.76Q36.23 24.37 36.77 24.27L36.96 24.27ZM63.87 45.65Q64.11 45.31 64.60 45.17Q64.31 43.26 64.04 41.09Q63.77 38.92 63.55 36.79Q63.33 34.67 63.18 32.74Q63.04 30.81 63.04 29.39Q63.04 29.05 63.04 28.71Q63.04 28.37 62.99 27.98Q62.21 27.73 62.06 26.86Q62.06 26.76 61.94 26.54Q61.82 26.32 61.43 26.12Q61.04 25.93 60.50 25.93Q59.96 25.93 59.42 26.10Q58.89 26.27 58.45 26.46Q57.08 27.10 55.66 28.32Q54.25 29.54 53.00 31.05Q51.76 32.57 50.81 34.25Q49.85 35.94 49.41 37.50Q49.07 38.82 49.07 40.19Q49.07 41.89 49.63 43.36Q50.20 44.82 51.05 46.00Q51.90 47.17 52.93 47.97Q53.96 48.78 54.88 49.22Q55.47 49.51 56.40 49.51Q58.01 49.51 60.08 48.61Q62.16 47.71 63.87 45.65M65.77 29.39Q65.77 30.96 65.94 33.15Q66.11 35.35 66.41 37.74Q66.70 40.14 67.02 42.50Q67.33 44.87 67.60 46.80Q67.87 48.73 68.07 49.95Q68.26 51.17 68.26 51.27Q68.26 51.76 67.92 52.15Q67.58 52.54 66.89 52.64Q66.41 52.64 66.02 52.32Q65.63 52.00 65.53 51.46Q65.53 51.37 65.41 50.54Q65.28 49.71 65.09 48.34Q63.09 50.39 60.79 51.32Q58.50 52.25 56.45 52.25Q54.79 52.25 53.76 51.71Q52.29 51.03 50.95 49.88Q49.61 48.73 48.58 47.24Q47.56 45.75 46.95 43.95Q46.34 42.14 46.34 40.14Q46.34 38.53 46.78 36.77Q47.27 34.91 48.36 32.96Q49.46 31.01 50.88 29.30Q52.29 27.59 53.96 26.20Q55.62 24.80 57.28 24.02Q59.03 23.19 60.50 23.19Q61.08 23.19 61.62 23.32Q62.16 23.44 62.84 23.78Q62.74 21.97 62.62 20.26Q62.50 18.55 62.38 17.21Q62.26 15.87 62.18 15.04Q62.11 14.21 62.11 14.11Q62.11 13.57 62.48 13.21Q62.84 12.84 63.48 12.74Q64.01 12.74 64.38 13.11Q64.75 13.48 64.84 14.01Q64.84 14.16 64.99 15.67Q65.14 17.19 65.31 19.43Q65.48 21.68 65.63 24.34Q65.77 27.00 65.77 29.39ZM84.08 26.81Q83.64 26.81 82.35 27.27Q81.05 27.73 79.66 28.93Q78.27 30.13 77.08 32.25Q75.88 34.38 75.59 37.70Q76.42 37.50 77.47 37.26Q78.52 37.01 79.57 36.79Q80.62 36.57 81.57 36.43Q82.52 36.28 83.11 36.28Q83.79 36.28 84.84 35.96Q85.89 35.64 86.91 35.30Q87.74 35.01 88.48 34.79Q89.21 34.57 89.89 34.38Q89.70 32.42 89.06 31.01Q88.43 29.59 87.60 28.66Q86.77 27.73 85.84 27.27Q84.91 26.81 84.08 26.81M93.31 49.17Q93.85 49.17 94.21 49.51Q94.58 49.85 94.68 50.54Q94.68 51.07 94.36 51.44Q94.04 51.81 93.51 51.90Q93.41 51.90 92.63 52.03Q91.85 52.15 90.77 52.29Q89.70 52.44 88.53 52.54Q87.35 52.64 86.52 52.64Q80.03 52.64 76.56 49.19Q73.10 45.75 72.75 39.50Q72.66 36.33 73.32 33.94Q73.97 31.54 75.07 29.83Q76.17 28.13 77.54 27.00Q78.91 25.88 80.20 25.24Q81.49 24.61 82.54 24.34Q83.59 24.07 84.08 24.07Q85.35 24.07 86.79 24.71Q88.23 25.34 89.48 26.64Q90.72 27.93 91.60 29.93Q92.48 31.93 92.68 34.67Q92.97 35.06 92.97 35.55Q92.97 36.04 92.68 36.38Q92.43 37.35 91.36 37.35Q90.87 37.35 90.53 37.06Q89.21 37.35 87.79 37.89Q86.52 38.33 85.30 38.67Q84.08 39.01 83.11 39.01Q82.57 39.01 81.67 39.16Q80.76 39.31 79.69 39.55Q78.61 39.79 77.51 40.06Q76.42 40.33 75.54 40.58Q75.73 43.60 76.93 45.43Q78.13 47.27 79.76 48.27Q81.40 49.27 83.23 49.58Q85.06 49.90 86.52 49.90Q87.30 49.90 88.43 49.80Q89.55 49.71 90.58 49.56Q91.60 49.41 92.38 49.32L93.12 49.22L93.31 49.17ZM107.81 49.71Q108.74 49.71 110.18 48.80Q111.62 47.90 112.99 46.26Q114.36 44.63 115.33 42.33Q116.31 40.04 116.31 37.21Q116.31 34.47 115.65 32.40Q114.99 30.32 114.14 28.88Q113.28 27.44 112.43 26.71Q111.57 25.98 111.18 25.88Q110.35 25.88 109.69 26.00Q109.03 26.12 108.79 26.17Q108.20 26.17 107.71 25.68Q106.49 26.17 105.18 27.88Q103.86 29.59 102.73 31.86Q101.61 34.13 100.88 36.69Q100.15 39.26 100.15 41.41Q100.15 43.65 100.93 45.24Q101.71 46.83 102.88 47.80Q104.05 48.78 105.37 49.24Q106.69 49.71 107.81 49.71M111.23 23.14Q112.26 23.14 113.60 24.15Q114.94 25.15 116.14 26.98Q117.33 28.81 118.19 31.40Q119.04 33.98 119.04 37.21Q119.04 40.48 117.92 43.26Q116.80 46.04 115.11 48.10Q113.43 50.15 111.45 51.29Q109.47 52.44 107.81 52.44Q105.91 52.44 104.05 51.71Q102.20 50.98 100.73 49.58Q99.27 48.19 98.34 46.14Q97.41 44.09 97.41 41.41Q97.41 39.70 97.85 37.65Q98.29 35.60 99.05 33.52Q99.80 31.45 100.85 29.52Q101.90 27.59 103.13 26.07Q104.35 24.56 105.71 23.66Q107.08 22.75 108.50 22.75Q109.03 22.75 109.45 22.88Q109.86 23.00 110.21 23.19Q110.45 23.19 110.69 23.17Q110.94 23.14 111.23 23.14ZM176.56 32.03Q176.56 32.96 176.68 34.67Q176.81 36.38 176.98 38.40Q177.15 40.43 177.34 42.55Q177.54 44.68 177.71 46.41Q177.88 48.14 178.00 49.29Q178.13 50.44 178.13 50.49Q178.13 51.03 177.78 51.42Q177.44 51.81 176.76 51.86Q176.22 51.86 175.85 51.51Q175.49 51.17 175.39 50.63Q175.39 50.49 175.27 49.32Q175.15 48.14 174.98 46.41Q174.80 44.68 174.61 42.58Q174.41 40.48 174.24 38.45Q174.07 36.43 173.95 34.72Q173.83 33.01 173.83 32.03Q173.83 31.01 173.78 29.54Q173.73 28.08 173.61 26.42Q173.49 24.76 173.34 23.05Q173.19 21.34 173.05 19.82Q171.88 21.83 170.46 23.85Q169.04 25.88 167.92 27.49Q167.43 28.17 166.60 29.54Q165.77 30.91 164.82 32.57Q163.87 34.23 162.92 35.96Q161.96 37.70 161.16 39.11Q160.35 40.53 159.84 41.46Q159.33 42.38 159.33 42.43Q158.94 43.12 158.15 43.12Q157.81 43.12 157.47 42.97Q156.79 42.58 156.79 41.75Q156.79 41.41 156.93 41.11L157.67 39.45Q157.57 39.36 156.88 38.50Q156.20 37.65 155.18 36.35Q154.15 35.06 152.91 33.50Q151.66 31.93 150.51 30.42Q149.37 28.91 148.41 27.61Q147.46 26.32 146.97 25.54Q146.14 24.17 145.09 22.51Q144.04 20.85 142.92 19.29Q143.12 20.90 143.26 22.73Q143.41 24.56 143.51 26.29Q143.60 28.03 143.68 29.52Q143.75 31.01 143.75 32.03Q143.75 32.96 143.87 34.67Q143.99 36.38 144.17 38.40Q144.34 40.43 144.53 42.55Q144.73 44.68 144.92 46.41Q145.12 48.14 145.24 49.29Q145.36 50.44 145.36 50.49Q145.36 51.03 145.00 51.42Q144.63 51.81 143.99 51.86Q143.46 51.86 143.09 51.51Q142.72 51.17 142.63 50.63Q142.63 50.49 142.50 49.32Q142.38 48.14 142.19 46.41Q141.99 44.68 141.80 42.58Q141.60 40.48 141.43 38.45Q141.26 36.43 141.14 34.72Q141.02 33.01 141.02 32.03Q141.02 30.57 140.89 28.27Q140.77 25.98 140.58 23.56Q140.38 21.14 140.14 18.95Q139.89 16.75 139.65 15.43Q139.65 15.33 139.67 15.21Q139.70 15.09 139.65 14.75Q139.65 14.16 140.04 13.77Q140.53 13.38 141.02 13.38Q141.60 13.38 141.99 13.77Q142.92 14.70 143.90 15.99Q144.87 17.29 145.83 18.68Q146.78 20.07 147.68 21.48Q148.58 22.90 149.32 24.07Q149.90 25 151.22 26.78Q152.54 28.56 154.05 30.52Q155.57 32.47 157.01 34.25Q158.45 36.04 159.18 36.96Q159.96 35.50 160.91 33.86Q161.87 32.23 162.74 30.69Q163.62 29.15 164.40 27.86Q165.19 26.56 165.67 25.88Q166.46 24.80 167.38 23.49Q168.31 22.17 169.19 20.83Q170.07 19.48 170.85 18.16Q171.63 16.85 172.07 15.72Q172.17 15.48 172.46 15.19Q172.61 14.26 173.83 14.06Q174.90 14.06 175.15 15.14Q175.44 16.50 175.68 18.77Q175.93 21.04 176.12 23.54Q176.32 26.03 176.44 28.34Q176.56 30.66 176.56 32.03ZM193.65 49.56Q194.68 49.56 195.90 48.61Q197.12 47.66 198.27 46.04Q199.41 44.43 200.34 42.26Q201.27 40.09 201.71 37.65Q201.37 35.30 201.17 32.71Q200.98 30.13 200.93 27.20Q200.39 26.76 200.39 26.12Q200.05 25.98 199.68 25.88Q199.32 25.78 198.88 25.78Q198.24 25.78 197.07 26.05Q195.90 26.32 194.53 26.93Q193.16 27.54 191.77 28.52Q190.38 29.49 189.23 30.91Q188.09 32.32 187.35 34.18Q186.62 36.04 186.62 38.38Q186.62 42.09 187.23 44.29Q187.84 46.48 188.84 47.66Q189.84 48.83 191.09 49.19Q192.33 49.56 193.65 49.56M204.49 37.65Q204.93 40.67 205.52 43.07Q206.10 45.46 206.62 47.12Q207.13 48.78 207.50 49.68Q207.86 50.59 207.86 50.63Q207.91 50.78 207.93 50.90Q207.96 51.03 207.96 51.17Q207.96 52.05 207.18 52.44Q206.79 52.54 206.59 52.54Q205.66 52.54 205.37 51.76Q205.27 51.56 204.47 49.44Q203.66 47.31 202.78 43.51Q202.00 45.41 200.95 47.02Q199.90 48.63 198.71 49.80Q197.51 50.98 196.22 51.64Q194.92 52.29 193.65 52.29Q188.67 52.29 186.28 48.88Q183.89 45.46 183.89 38.38Q183.89 35.45 184.77 33.18Q185.64 30.91 187.04 29.20Q188.43 27.49 190.16 26.32Q191.89 25.15 193.55 24.41Q195.21 23.68 196.63 23.36Q198.05 23.05 198.88 23.05Q200.34 23.05 201.42 23.61Q202.49 24.17 203.20 24.88Q203.91 25.59 204.25 26.20Q204.59 26.81 204.59 26.86Q204.74 27.10 204.74 27.39Q204.74 27.88 204.30 28.42Q204.74 30.71 204.74 34.47Q204.74 35.25 204.66 36.04Q204.59 36.82 204.49 37.65ZM235.94 45.56Q235.94 46.24 236.11 46.97Q236.28 47.71 236.52 48.36Q236.77 49.02 237.01 49.56Q237.26 50.10 237.40 50.39Q237.55 50.68 237.55 51.07Q237.55 51.86 236.87 52.25Q236.67 52.34 236.52 52.39Q236.38 52.44 236.18 52.44Q235.40 52.44 235.01 51.71Q234.96 51.66 234.67 51.10Q234.38 50.54 234.06 49.66Q233.74 48.78 233.47 47.71Q233.20 46.63 233.20 45.56Q233.20 45.31 233.18 45.00Q233.15 44.68 233.11 44.29Q233.06 43.60 233.01 42.80Q232.96 41.99 232.96 40.87Q232.96 40.14 232.86 39.33Q232.76 38.53 232.67 37.55Q232.52 36.33 232.40 34.94Q232.28 33.54 232.28 31.98Q232.28 31.01 231.86 29.86Q231.45 28.71 230.66 27.73Q229.88 26.76 228.74 26.12Q227.59 25.49 226.07 25.49Q224.17 25.49 222.68 26.20Q221.19 26.90 220.12 27.98Q219.04 29.05 218.29 30.30Q217.53 31.54 217.09 32.64Q216.65 33.74 216.43 34.52Q216.21 35.30 216.21 35.40Q216.06 35.84 215.82 36.08L215.82 36.96Q215.82 38.13 216.16 39.65Q216.50 41.16 216.94 42.87Q217.48 45.07 217.99 47.46Q218.51 49.85 218.51 52.34Q218.51 52.93 218.12 53.32Q217.72 53.71 217.14 53.71Q216.60 53.71 216.19 53.32Q215.77 52.93 215.77 52.34Q215.77 50.10 215.31 47.85Q214.84 45.61 214.31 43.55Q213.82 41.75 213.45 40.06Q213.09 38.38 213.09 36.96Q213.09 35.55 212.89 33.40Q212.70 31.25 212.43 29.22Q212.16 27.20 211.94 25.71Q211.72 24.22 211.72 24.12Q211.72 23.63 212.06 23.24Q212.40 22.85 213.09 22.75Q213.62 22.75 213.99 23.07Q214.36 23.39 214.45 23.93Q214.45 24.02 214.55 24.54Q214.65 25.05 214.75 25.90Q214.84 26.76 214.99 27.83Q215.14 28.91 215.28 30.08Q216.02 28.71 217.02 27.39Q218.02 26.07 219.36 25.05Q220.70 24.02 222.36 23.39Q224.02 22.75 226.07 22.75Q228.08 22.75 229.71 23.56Q231.35 24.37 232.52 25.68Q233.69 27.00 234.35 28.66Q235.01 30.32 235.01 31.98Q235.01 33.45 235.13 34.77Q235.25 36.08 235.40 37.21Q235.50 38.18 235.60 39.11Q235.69 40.04 235.69 40.87Q235.69 42.82 235.84 43.99Q235.89 44.43 235.91 44.80Q235.94 45.17 235.94 45.56ZM250.83 49.56Q251.86 49.56 253.08 48.61Q254.30 47.66 255.44 46.04Q256.59 44.43 257.52 42.26Q258.45 40.09 258.89 37.65Q258.54 35.30 258.35 32.71Q258.15 30.13 258.11 27.20Q257.57 26.76 257.57 26.12Q257.23 25.98 256.86 25.88Q256.49 25.78 256.05 25.78Q255.42 25.78 254.25 26.05Q253.08 26.32 251.71 26.93Q250.34 27.54 248.95 28.52Q247.56 29.49 246.41 30.91Q245.26 32.32 244.53 34.18Q243.80 36.04 243.80 38.38Q243.80 42.09 244.41 44.29Q245.02 46.48 246.02 47.66Q247.02 48.83 248.27 49.19Q249.51 49.56 250.83 49.56M261.67 37.65Q262.11 40.67 262.70 43.07Q263.28 45.46 263.79 47.12Q264.31 48.78 264.67 49.68Q265.04 50.59 265.04 50.63Q265.09 50.78 265.11 50.90Q265.14 51.03 265.14 51.17Q265.14 52.05 264.36 52.44Q263.96 52.54 263.77 52.54Q262.84 52.54 262.55 51.76Q262.45 51.56 261.65 49.44Q260.84 47.31 259.96 43.51Q259.18 45.41 258.13 47.02Q257.08 48.63 255.88 49.80Q254.69 50.98 253.39 51.64Q252.10 52.29 250.83 52.29Q245.85 52.29 243.46 48.88Q241.06 45.46 241.06 38.38Q241.06 35.45 241.94 33.18Q242.82 30.91 244.21 29.20Q245.61 27.49 247.34 26.32Q249.07 25.15 250.73 24.41Q252.39 23.68 253.81 23.36Q255.22 23.05 256.05 23.05Q257.52 23.05 258.59 23.61Q259.67 24.17 260.38 24.88Q261.08 25.59 261.43 26.20Q261.77 26.81 261.77 26.86Q261.91 27.10 261.91 27.39Q261.91 27.88 261.47 28.42Q261.91 30.71 261.91 34.47Q261.91 35.25 261.84 36.04Q261.77 36.82 261.67 37.65ZM286.57 44.14Q286.72 43.70 287.21 43.46Q286.87 40.09 286.65 37.21Q286.43 34.33 286.43 32.52L286.43 31.93Q285.94 31.69 285.74 31.30Q284.72 29.39 283.72 28.56Q282.71 27.73 282.42 27.69Q281.59 27.69 280.93 27.78Q280.27 27.88 280.03 27.93Q279.39 27.93 279.00 27.44Q277.78 27.93 276.44 29.64Q275.10 31.35 273.97 33.62Q272.85 35.89 272.12 38.45Q271.39 41.02 271.39 43.16Q271.39 45.46 272.17 47.02Q272.95 48.58 274.12 49.58Q275.29 50.59 276.64 51.03Q277.98 51.46 279.10 51.46Q279.83 51.46 280.83 50.95Q281.84 50.44 282.89 49.49Q283.94 48.54 284.91 47.19Q285.89 45.85 286.57 44.14M289.16 32.52Q289.16 33.64 289.26 35.33Q289.36 37.01 289.53 38.99Q289.70 40.97 289.89 43.19Q290.09 45.41 290.33 47.66Q290.53 49.85 290.75 51.93Q290.97 54.00 291.11 55.83Q291.26 57.67 291.36 59.18Q291.46 60.69 291.46 61.72Q291.46 63.48 290.77 65.21Q290.09 66.94 288.77 68.31Q287.45 69.68 285.52 70.53Q283.59 71.39 281.05 71.39Q273.83 71.39 270.70 63.48Q270.61 63.28 270.61 62.94Q270.61 62.06 271.44 61.67Q271.58 61.62 271.70 61.60Q271.83 61.57 271.97 61.57Q272.85 61.57 273.24 62.50Q273.49 63.13 274.00 64.18Q274.51 65.23 275.39 66.21Q276.27 67.19 277.66 67.92Q279.05 68.65 281.05 68.65Q283.15 68.65 284.62 67.97Q286.08 67.29 286.99 66.24Q287.89 65.19 288.31 63.96Q288.72 62.74 288.72 61.72Q288.72 60.74 288.62 59.25Q288.53 57.76 288.38 55.96Q288.23 54.15 288.04 52.12Q287.84 50.10 287.65 48.05Q286.72 49.51 285.62 50.63Q284.52 51.76 283.37 52.56Q282.23 53.37 281.13 53.78Q280.03 54.20 279.10 54.20Q277.20 54.20 275.32 53.49Q273.44 52.78 271.97 51.39Q270.51 50 269.58 47.92Q268.65 45.85 268.65 43.16Q268.65 41.46 269.09 39.40Q269.53 37.35 270.29 35.30Q271.04 33.25 272.09 31.30Q273.14 29.35 274.37 27.86Q275.59 26.37 276.95 25.46Q278.32 24.56 279.74 24.56Q280.76 24.56 281.45 25Q281.69 24.95 281.93 24.95Q282.18 24.95 282.47 24.95Q283.35 24.95 284.42 25.63Q285.50 26.32 286.47 27.54Q286.57 26.95 286.79 26.46Q287.01 25.98 287.79 25.93L289.06 25.83L289.26 27.10Q289.26 27.20 289.26 27.27Q289.26 27.34 289.21 27.69Q289.21 27.98 289.18 29.00Q289.16 30.03 289.16 32.52ZM306.49 26.81Q306.05 26.81 304.76 27.27Q303.47 27.73 302.08 28.93Q300.68 30.13 299.49 32.25Q298.29 34.38 298.00 37.70Q298.83 37.50 299.88 37.26Q300.93 37.01 301.98 36.79Q303.03 36.57 303.98 36.43Q304.93 36.28 305.52 36.28Q306.20 36.28 307.25 35.96Q308.30 35.64 309.33 35.30Q310.16 35.01 310.89 34.79Q311.62 34.57 312.30 34.38Q312.11 32.42 311.47 31.01Q310.84 29.59 310.01 28.66Q309.18 27.73 308.25 27.27Q307.32 26.81 306.49 26.81M315.72 49.17Q316.26 49.17 316.63 49.51Q316.99 49.85 317.09 50.54Q317.09 51.07 316.77 51.44Q316.46 51.81 315.92 51.90Q315.82 51.90 315.04 52.03Q314.26 52.15 313.18 52.29Q312.11 52.44 310.94 52.54Q309.77 52.64 308.94 52.64Q302.44 52.64 298.97 49.19Q295.51 45.75 295.17 39.50Q295.07 36.33 295.73 33.94Q296.39 31.54 297.49 29.83Q298.58 28.13 299.95 27.00Q301.32 25.88 302.61 25.24Q303.91 24.61 304.96 24.34Q306.01 24.07 306.49 24.07Q307.76 24.07 309.20 24.71Q310.64 25.34 311.89 26.64Q313.13 27.93 314.01 29.93Q314.89 31.93 315.09 34.67Q315.38 35.06 315.38 35.55Q315.38 36.04 315.09 36.38Q314.84 37.35 313.77 37.35Q313.28 37.35 312.94 37.06Q311.62 37.35 310.21 37.89Q308.94 38.33 307.71 38.67Q306.49 39.01 305.52 39.01Q304.98 39.01 304.08 39.16Q303.17 39.31 302.10 39.55Q301.03 39.79 299.93 40.06Q298.83 40.33 297.95 40.58Q298.14 43.60 299.34 45.43Q300.54 47.27 302.17 48.27Q303.81 49.27 305.64 49.58Q307.47 49.90 308.94 49.90Q309.72 49.90 310.84 49.80Q311.96 49.71 312.99 49.56Q314.01 49.41 314.79 49.32L315.53 49.22L315.72 49.17ZM334.62 23.54Q335.69 23.54 336.43 23.71Q337.16 23.88 337.62 24.10Q338.09 24.32 338.35 24.56Q338.62 24.80 338.72 24.95Q338.96 25.29 338.96 25.68Q338.96 26.46 338.38 26.81Q338.09 27.05 337.60 27.05Q337.01 27.05 336.57 26.61Q336.47 26.56 336.06 26.42Q335.64 26.27 334.62 26.27Q334.03 26.27 332.52 27.00Q331.01 27.73 329.44 29.39Q327.88 31.05 326.64 33.72Q325.39 36.38 325.39 40.23Q325.54 40.87 325.68 41.53Q325.83 42.19 326.03 42.87Q326.56 45.07 327.10 47.46Q327.64 49.85 327.64 52.34Q327.64 52.93 327.22 53.32Q326.81 53.71 326.27 53.71Q325.68 53.71 325.29 53.32Q324.90 52.93 324.90 52.34Q324.90 50.10 324.41 47.85Q323.93 45.61 323.39 43.55Q322.90 41.75 322.53 40.06Q322.17 38.38 322.17 36.96Q322.17 35.55 321.97 33.40Q321.78 31.25 321.51 29.22Q321.24 27.20 321.04 25.71Q320.85 24.22 320.85 24.12Q320.85 23.63 321.19 23.24Q321.53 22.85 322.22 22.75Q322.71 22.75 323.07 23.07Q323.44 23.39 323.54 23.93Q323.54 24.02 323.66 24.73Q323.78 25.44 323.93 26.51Q324.07 27.59 324.24 28.96Q324.41 30.32 324.56 31.69Q325.54 29.69 326.88 28.15Q328.22 26.61 329.64 25.59Q331.05 24.56 332.37 24.05Q333.69 23.54 334.62 23.54Z"/></g></g></svg>