<svg xmlns="http://www.w3.org/2000/svg" viewBox="0 14.350000381469727 229.75 32.25" data-asc="0.92" width="229.75" height="32.25"><defs/><g fill="#2aa022"><g transform="translate(0, 0)"><path d="M0 46.60L0 14.35L5.50 14.35L5.50 27.70L9 27.70L9 23.20L14.50 23.20L14.50 27.70L18 27.70L18 14.35L23.55 14.35L23.55 46.60L18 46.60L18 33.25L5.50 33.25L5.50 46.60L0 46.60ZM33.10 46.60L33.10 42.15L28.60 42.15L28.60 27.70L33.10 27.70L33.10 23.20L47.60 23.20L47.60 27.70L52.15 27.70L52.15 41L56.65 41L56.65 46.60L51.15 46.60L51.15 42.15L47.60 42.15L47.60 46.60L33.10 46.60M34.10 41L46.60 41L46.60 28.80L34.10 28.80L34.10 41ZM64.70 46.60L64.70 42.15L60.20 42.15L60.20 27.70L64.70 27.70L64.70 23.20L79.20 23.20L79.20 27.70L83.75 27.70L83.75 33.25L78.20 33.25L78.20 28.80L65.70 28.80L65.70 41L78.20 41L78.20 36.50L83.75 36.50L83.75 42.15L79.20 42.15L79.20 46.60L64.70 46.60ZM88.80 46.60L88.80 14.35L94.30 14.35L94.30 32.05L97.80 32.05L97.80 27.70L106.80 27.70L106.80 23.20L112.35 23.20L112.35 28.80L107.80 28.80L107.80 33.25L98.75 33.25L98.75 36.50L107.80 36.50L107.80 41L112.35 41L112.35 46.60L106.80 46.60L106.80 42.15L97.80 42.15L97.80 37.70L94.30 37.70L94.30 46.60L88.80 46.60ZM119.90 46.60L119.90 42.15L115.40 42.15L115.40 27.70L119.90 27.70L119.90 23.20L134.40 23.20L134.40 27.70L138.95 27.70L138.95 41L143.45 41L143.45 46.60L137.95 46.60L137.95 42.15L134.40 42.15L134.40 46.60L119.90 46.60M120.90 41L133.40 41L133.40 28.80L120.90 28.80L120.90 41ZM153 46.60L153 42.15L148.50 42.15L148.50 28.80L144 28.80L144 23.20L148.50 23.20L148.50 14.35L153.95 14.35L153.95 23.20L167.55 23.20L167.55 28.80L153.95 28.80L153.95 41L166.55 41L166.55 36.50L172.05 36.50L172.05 42.15L167.55 42.15L167.55 46.60L153 46.60ZM181.10 46.60L181.10 42.15L176.60 42.15L176.60 27.70L181.10 27.70L181.10 23.20L195.60 23.20L195.60 27.70L200.15 27.70L200.15 42.15L195.60 42.15L195.60 46.60L181.10 46.60M182.10 41L194.60 41L194.60 28.80L182.10 28.80L182.10 41ZM206.20 46.60L206.20 23.20L225.20 23.20L225.20 27.70L229.75 27.70L229.75 46.60L224.20 46.60L224.20 28.80L211.70 28.80L211.70 46.60L206.20 46.60Z"/></g></g></svg>